<svg id="Layer_1" data-name="Layer 1" xmlns="http://www.w3.org/2000/svg" viewBox="0 0 184.18 174.22"><defs><style>.cls-1,.cls-2{fill:#e2c044;}.cls-1{stroke:#e2c044;stroke-miterlimit:10;stroke-width:0.25px;}.cls-3{fill:#b0e298;}.cls-4{fill:#de6b48;}</style></defs><path d="M192.22,48.46a29.35,29.35,0,0,1,8.7,1.1,19.67,19.67,0,0,1,4.86,2.13,15.19,15.19,0,0,1,6.2,7.49,17.66,17.66,0,0,1,1,8.11,21.66,21.66,0,0,1-1.45,6.27c-.5,1.23-.89,2.52-1.46,3.71a39.29,39.29,0,0,1-2.23,4.08,50.68,50.68,0,0,1-3.1,4.46c-1.3,1.67-2.7,3.28-4.14,4.84a59.17,59.17,0,0,1-7.28,6.6,66.38,66.38,0,0,1-8,5.42c-1.72,1-3.5,1.89-5.28,2.77a54.68,54.68,0,0,1-8.1,3.18,42,42,0,0,1-8.44,1.86c-1.87.18-3.75.37-5.62.37a25.64,25.64,0,0,1-8.59-1.38,17.5,17.5,0,0,1-6.37-3.73,13.15,13.15,0,0,1-3.57-5.33,22.73,22.73,0,0,1-1.08-4.2,16.14,16.14,0,0,1,.13-5.14c.17-.92.28-1.86.53-2.76a35.69,35.69,0,0,1,1.4-4.32,42.2,42.2,0,0,1,5.19-9.14,38.61,38.61,0,0,1,2.59-3.37c1.5-1.69,3-3.37,4.67-4.92a70.64,70.64,0,0,1,5.45-4.64c2-1.52,4-2.94,6.12-4.29a61,61,0,0,1,9.74-5,61.78,61.78,0,0,1,7.28-2.48,49.81,49.81,0,0,1,7.44-1.42C189.93,48.59,191.08,48.54,192.22,48.46Z" transform="translate(-108.25 -13)"/><path d="M240.8,151.78c-1.77,1.91,3.44,2.05,1.55,3.82-1.65,1.55,9.85,18.49,8,19.82-2.23,1.62-15.77-13.24-18.12-11.81-1.74,1.06-3.24-6.93-5.08-6.05" transform="translate(-108.25 -13)"/><path d="M253.77,139.36" transform="translate(-108.25 -13)"/><path class="cls-1" d="M244.06,105.82l1.59,2.34c2.15,3.19,4.31,6.37,6.44,9.57.89,1.34,1.76,2.69,2.54,4.1a12,12,0,0,1,1.3,4.47,20.74,20.74,0,0,1,.19,2.84,23.58,23.58,0,0,1-.29,3,22.84,22.84,0,0,1-.61,3.07c-.42,1.4-.91,2.78-1.45,4.14a24.66,24.66,0,0,1-1.28,2.7c-.66,1.23-1.32,2.45-2.06,3.63s-1.43,2.12-2.19,3.15-1.52,2-2.37,2.93a47.4,47.4,0,0,1-3.52,3.83,39.57,39.57,0,0,1-4.36,3.83c-2.23,1.62-3.4,2.75-5.75,4.18-1.74,1.06-7.51,4.62-9.35,5.51a55,55,0,0,1-9.06,3.43,49.68,49.68,0,0,1-9,1.72,35.17,35.17,0,0,1-8-.14,22.74,22.74,0,0,1-6.76-2,17,17,0,0,1-6.9-6.25c-2.68-4-5.43-8.06-8.15-12.08-.33-.49-.67-1-1-1.39.81.74,1.62,1.55,2.5,2.27a16.31,16.31,0,0,0,6,3,38.14,38.14,0,0,0,4.74.92,28.56,28.56,0,0,0,6.27.1,47.91,47.91,0,0,0,8.57-1.5,59.79,59.79,0,0,0,9.26-3.33,62.59,62.59,0,0,0,9.74-5.41c2-1.35,3.95-2.73,5.81-4.24a65.82,65.82,0,0,0,5.32-4.83,56.44,56.44,0,0,0,6.25-7.45,49.35,49.35,0,0,0,4.05-6.91,27.51,27.51,0,0,0,1.44-3.76c.47-1.49.87-3,1.19-4.52a18.82,18.82,0,0,0,.26-2.81,17.41,17.41,0,0,0-.44-4.83c-.24-1-.67-2-1-3,0-.09-.07-.17-.1-.26Z" transform="translate(-108.25 -13)"/><path d="M229.53,84.39l2,3c2.08,3.08,4.14,6.17,6.23,9.23a24.65,24.65,0,0,1,2.61,4.24,13.14,13.14,0,0,1,1.15,4.39,29.45,29.45,0,0,1,.15,3.5,25.46,25.46,0,0,1-.63,4.26,34,34,0,0,1-1.48,4.72,36.84,36.84,0,0,1-2.08,4.29,46.53,46.53,0,0,1-2.57,4.13c-1.08,1.52-2.27,3-3.43,4.43a50,50,0,0,1-5.49,5.69,60.42,60.42,0,0,1-8.37,6.49c-2,1.25-4,2.48-6,3.56-2.25,1.18-4.57,2.22-6.9,3.23a48.62,48.62,0,0,1-7.16,2.32,43.32,43.32,0,0,1-7.21,1.24,34.13,34.13,0,0,1-9.62-.51,18.51,18.51,0,0,1-8.18-3.63,16.53,16.53,0,0,1-3.49-3.92c-3.06-4.54-6.15-9.06-9.22-13.6a.71.71,0,0,0-.2-.25l1.65,1.54a16.29,16.29,0,0,0,5.2,3.15,28.86,28.86,0,0,0,13.15,1.59,43.69,43.69,0,0,0,7.19-1.2,59.14,59.14,0,0,0,10.33-3.62,65,65,0,0,0,9.68-5.4c2-1.35,3.93-2.73,5.79-4.22a63.9,63.9,0,0,0,7.91-7.61,56.87,56.87,0,0,0,3.68-4.79,46.29,46.29,0,0,0,3-4.82,50.27,50.27,0,0,0,2.17-5,21.39,21.39,0,0,0,1.07-3.38,39.64,39.64,0,0,0,.57-4.34,18.66,18.66,0,0,0,0-2.59,15.79,15.79,0,0,0-1.55-5.91l-.06-.13S229.49,84.45,229.53,84.39Z" transform="translate(-108.25 -13)"/><path class="cls-2" d="M215.19,63.22l2.27,3.35c2,3,4,6,6,8.93a23.86,23.86,0,0,1,2.74,4.61,17.18,17.18,0,0,1,1.15,5.33,22.15,22.15,0,0,1-.53,5.84,32.75,32.75,0,0,1-2.8,7.92,46.11,46.11,0,0,1-4.33,7,64.65,64.65,0,0,1-5.09,6,58,58,0,0,1-7,6.28c-1.86,1.4-3.77,2.74-5.7,4a57.68,57.68,0,0,1-8.92,4.81c-1.93.84-3.9,1.57-5.89,2.27a44.65,44.65,0,0,1-9.74,2.22,56.59,56.59,0,0,1-5.83.23,23.45,23.45,0,0,1-7.52-1.21,17.85,17.85,0,0,1-6.52-3.66,28.37,28.37,0,0,1-4.18-5.4c-2.65-3.87-5.26-7.76-7.89-11.65,0,0-.07-.11-.14-.1,1,.86,1.93,1.8,3,2.59a18.4,18.4,0,0,0,6.65,3,29,29,0,0,0,7.31.82,39.87,39.87,0,0,0,11-1.54c2.17-.63,4.34-1.26,6.44-2.08a68.4,68.4,0,0,0,6.7-3,71,71,0,0,0,6.22-3.72,63.93,63.93,0,0,0,5.74-4.2,79.69,79.69,0,0,0,5.88-5.45,65.93,65.93,0,0,0,4.56-5.3,52.06,52.06,0,0,0,3.06-4.53A36.19,36.19,0,0,0,215,80a30.12,30.12,0,0,0,1.41-5.1,21.55,21.55,0,0,0,.29-6,15.83,15.83,0,0,0-1.55-5.45S215.16,63.36,215.19,63.22Z" transform="translate(-108.25 -13)"/><path class="cls-3" d="M133.42,98.53c.23.45.46.86.65,1.29q8.2,18.23,16.41,36.43c2.19,4.87,4.52,9.68,6.6,14.6,4,9.42,3,18.35-3.32,26.45a25.34,25.34,0,0,1-43.52-25.14q9-21.89,18.17-43.72c1.09-2.62,2.18-5.25,3.25-7.88A3.54,3.54,0,0,1,133.42,98.53Z" transform="translate(-108.25 -13)"/><path class="cls-3" d="M292.37,73.08a25.2,25.2,0,0,0-25.68-27c-15.78.18-31.56.45-47.33.69-2.85,0-5.69.08-8.53.1a3.54,3.54,0,0,0-2.54.88c.33.38.63.75,1,1.09Q223.14,63.22,237,77.59c3.71,3.84,7.32,7.77,11.11,11.53,7.28,7.2,15.95,9.55,25.8,6.71a25.41,25.41,0,0,0,18.44-22.75" transform="translate(-108.25 -13)"/><path class="cls-4" d="M179.33,47.15c-7.27,5.51-19.55,4.6-26-4.87a18.78,18.78,0,1,1,31.1-21.06C190.53,30.24,187.5,42.16,179.33,47.15Z" transform="translate(-108.25 -13)"/><path class="cls-4" d="M149,45.5c5.74,7.73,3.6,20.14-5.36,26A19.11,19.11,0,0,1,117.67,66a19.07,19.07,0,0,1,5.42-25.94C131.44,34.58,143.7,36.74,149,45.5Z" transform="translate(-108.25 -13)"/></svg>